<mxfile host="app.diagrams.net" modified="2023-04-26T12:18:18.740Z" agent="Mozilla/5.0 (Windows NT 10.0; Win64; x64) AppleWebKit/537.36 (KHTML, like Gecko) Chrome/112.0.0.0 Safari/537.36" version="21.2.1" etag="-75nmYkGHfZUVPcXohh4" type="github">
  <diagram name="Страница 1" id="pgFEUmMoxmylOD3h4brZ">
    <mxGraphModel>
      <root>
        <mxCell id="0" />
        <mxCell id="1" parent="0" />
      </root>
    </mxGraphModel>
  </diagram>
</mxfile>
